<?xml version="1.0" encoding="UTF-8"?>
<svg id="ChatService" xmlns="http://www.w3.org/2000/svg" viewBox="0 0 126.78 93.62">
  <defs>
    <style>
      .cls-1 {
        fill: #020202;
      }

      .cls-1, .cls-2, .cls-3, .cls-4 {
        stroke-width: 0px;
      }

      .cls-3 {
        fill: #2b2b2b;
      }

      .cls-4 {
        fill: #fff;
      }
    </style>
  </defs>
  <rect class="cls-3" x="44.61" y="81.1" width="29.74" height="6.26"/>
  <rect class="cls-2" x="12.52" y="7.54" width="95.48" height="73.56" rx="6" ry="6"/>
  <rect class="cls-4" x="17.22" y="12.23" width="86.08" height="58.69" rx="2" ry="2"/>
  <path class="cls-1" d="m35.72,87.36h47.51c2.44,0,4.42,1.98,4.42,4.42v.28H31.3v-.28c0-2.44,1.98-4.42,4.42-4.42h0Z"/>
  <path class="cls-4" d="m65,77.19h-11c-.65.06-1.22-.42-1.28-1.07-.06-.65.42-1.22,1.07-1.28.07,0,.14,0,.22,0h11c.65-.06,1.22.42,1.28,1.07.06.65-.42,1.22-1.07,1.28-.07,0-.14,0-.22,0Z"/>
  <path class="cls-2" d="m126,93.62H.78c-.43,0-.78-.35-.78-.78,0-.43.35-.78.78-.78h125.22c.43,0,.78.35.78.78,0,.43-.35.78-.78.78Z"/>
  <circle class="cls-2" cx="60.26" cy="32.44" r="11.43"/>
  <path class="cls-2" d="m78.11,62.7v8.23h-35.7v-8.23c0-9.86,8-17.85,17.85-17.85,9.86,0,17.84,7.99,17.85,17.85Z"/>
  <path class="cls-2" d="m118.73,33.18h-24.34c-.78,0-1.52.32-2.06.88l-6.06,6.29c-.44.45-1.15.46-1.6.02-.22-.21-.34-.51-.34-.81V6.11C84.32,2.74,87.05,0,90.42,0c0,0,0,0,.01,0h29.27c2.76,0,5,2.24,5,5v22.25c0,3.28-2.67,5.94-5.95,5.93,0,0-.01,0-.02,0Z"/>
  <rect class="cls-4" x="93" y="7.65" width="24.72" height="2.32"/>
  <rect class="cls-4" x="93" y="14.91" width="24.72" height="2.32"/>
  <rect class="cls-4" x="93" y="22.16" width="24.72" height="2.32"/>
</svg>